<?xml version="1.0" encoding="UTF-8" standalone="no"?>
<!-- Created with Inkscape (http://www.inkscape.org/) -->

<svg
   xmlns:dc="http://purl.org/dc/elements/1.1/"
   xmlns:cc="http://creativecommons.org/ns#"
   xmlns:rdf="http://www.w3.org/1999/02/22-rdf-syntax-ns#"
   xmlns:svg="http://www.w3.org/2000/svg"
   xmlns="http://www.w3.org/2000/svg"
   xmlns:sodipodi="http://sodipodi.sourceforge.net/DTD/sodipodi-0.dtd"
   xmlns:inkscape="http://www.inkscape.org/namespaces/inkscape"
   width="16px"
   height="16px"
   viewBox="0 0 16 16"
   version="1.1"
   id="SVGRoot"
   inkscape:version="0.92.1 r15371"
   sodipodi:docname="Logo.svg"
   inkscape:export-filename="C:\Users\Thomas\Documents\SGAG\Wernissage\Logo180.png"
   inkscape:export-xdpi="1080"
   inkscape:export-ydpi="1080">
  <sodipodi:namedview
     id="base"
     pagecolor="#ffffff"
     bordercolor="#666666"
     borderopacity="1.0"
     inkscape:pageopacity="0.0"
     inkscape:pageshadow="2"
     inkscape:zoom="32"
     inkscape:cx="4.5503222"
     inkscape:cy="3.0964862"
     inkscape:document-units="px"
     inkscape:current-layer="layer1"
     showgrid="false"
     inkscape:window-width="2160"
     inkscape:window-height="1346"
     inkscape:window-x="-11"
     inkscape:window-y="-11"
     inkscape:window-maximized="1"
     inkscape:grid-bbox="true" />
  <defs
     id="defs10" />
  <metadata
     id="metadata13">
    <rdf:RDF>
      <cc:Work
         rdf:about="">
        <dc:format>image/svg+xml</dc:format>
        <dc:type
           rdf:resource="http://purl.org/dc/dcmitype/StillImage" />
        <dc:title />
      </cc:Work>
    </rdf:RDF>
  </metadata>
  <g
     id="layer1"
     inkscape:groupmode="layer"
     inkscape:label="Ebene 1">
    <path
       style="fill:none;stroke:#000000;stroke-width:1px;stroke-linecap:butt;stroke-linejoin:miter;stroke-opacity:1"
       d="m 13.901729,1.8864527 v 6.140625 H 7.9173543 c 0,0 0.234375,-5.65625 5.9843747,-6.140625 z"
       id="path37"
       inkscape:connector-curvature="0" />
    <path
       style="fill:none;stroke:#000000;stroke-width:1px;stroke-linecap:butt;stroke-linejoin:miter;stroke-opacity:1"
       d="M 13.901729,8.0270777 V 14.152078 H 7.9642293 c 0,0 0.328125,-5.5781253 5.9374997,-6.1250003 z"
       id="path39"
       inkscape:connector-curvature="0" />
    <path
       style="fill:none;stroke:#000000;stroke-width:1px;stroke-linecap:butt;stroke-linejoin:miter;stroke-opacity:1"
       d="m 7.9642293,14.152078 h -6.0625 c 0,0 0.375,-5.6875003 6.015625,-6.1250003"
       id="path49"
       inkscape:connector-curvature="0" />
    <path
       style="fill:none;stroke:#000000;stroke-width:1px;stroke-linecap:butt;stroke-linejoin:miter;stroke-opacity:1"
       d="m 7.9173543,8.0270777 0.046875,6.1250003"
       id="path51"
       inkscape:connector-curvature="0" />
    <path
       style="fill:#ff0000;stroke:none;stroke-width:0.00552427"
       d="M 7.4046237,8.4897696 C 6.9610731,8.5588448 6.5223363,8.6645789 6.1020712,8.8235665 5.419306,9.0777282 4.7860116,9.467387 4.2606929,9.9731001 3.5223932,10.677265 3.0006473,11.584553 2.6703503,12.544447 2.548482,12.898802 2.4515977,13.261902 2.3828449,13.630288 c -0.00859,0.06439 0.050718,0.120771 0.1141097,0.114518 1.1503604,0.0067 2.3007612,0.0035 3.4511387,0.0044 0.5053161,-6.89e-4 1.0108917,0.0014 1.5160456,-10e-4 0.063906,-0.0022 0.1039692,-0.06807 0.094252,-0.12774 -0.015131,-1.578852 -0.025337,-3.15775 -0.03687,-4.7366322 -0.00281,-0.1037757 0.00292,-0.2083079 -0.00404,-0.3116043 -0.0061,-0.05323 -0.061189,-0.089646 -0.1128594,-0.082433 z"
       id="path57"
       inkscape:connector-curvature="0" />
    <path
       style="fill:#800080;stroke:none;stroke-width:0.015625"
       d="M 13.352652,2.3664149 C 12.295676,2.5273086 11.264109,2.9444591 10.44942,3.6465902 9.4469099,4.4971181 8.8069192,5.7116509 8.5026975,6.9782749 8.4625447,7.1642605 8.3973678,7.3515966 8.3974017,7.5416144 c 0.050944,0.1188508 0.2087846,0.055405 0.3108104,0.071382 1.5612489,0 3.1224979,0 4.6837459,0 0.146518,-0.023551 0.08897,-0.1989852 0.100007,-0.3031311 -0.0038,-1.5673977 0.0081,-3.1349242 -0.0076,-4.70224 -0.0017,-0.092776 0.0011,-0.2490585 -0.131683,-0.2412109 z"
       id="path59"
       inkscape:connector-curvature="0" />
    <path
       style="fill:#008080;stroke:none;stroke-width:0.015625"
       d="m 13.369286,8.5140989 c -1.267669,0.2059995 -2.484836,0.8140069 -3.343572,1.7795251 -0.8358985,0.927725 -1.3401079,2.114099 -1.5797676,3.330338 -0.012614,0.135876 0.1448527,0.127501 0.2383728,0.121063 1.5718388,0 3.1436768,0 4.7155148,0 0.146518,-0.02355 0.08897,-0.198985 0.100006,-0.303131 -0.0041,-1.568203 0.0091,-3.136563 -0.0095,-4.7046651 -0.0015,-0.08704 0.0038,-0.2272269 -0.12107,-0.22313 z"
       id="path63"
       inkscape:connector-curvature="0" />
  </g>
</svg>
